<svg width="42" height="42" viewBox="0 0 42 42" fill="none" xmlns="http://www.w3.org/2000/svg">
<path d="M33.94 30.6602L34.72 36.9802C34.92 38.6402 33.14 39.8002 31.72 38.9402L23.34 33.9602C22.42 33.9602 21.52 33.9002 20.64 33.7802C22.12 32.0402 23 29.8401 23 27.4601C23 21.7801 18.08 17.1801 11.9999 17.1801C9.67995 17.1801 7.53995 17.8401 5.75995 19.0001C5.69995 18.5001 5.67993 18.0001 5.67993 17.4801C5.67993 8.38002 13.5799 1 23.34 1C33.1 1 41 8.38002 41 17.4801C41 22.8801 38.22 27.6602 33.94 30.6602Z" fill="#E7D7F3" stroke="#703D92" stroke-width="0.8" stroke-linecap="round" stroke-linejoin="round"/>
<path d="M23 27.4603C23 29.8403 22.12 32.0404 20.64 33.7804C18.66 36.1804 15.52 37.7203 12 37.7203L6.78001 40.8203C5.90001 41.3603 4.78 40.6204 4.9 39.6004L5.4 35.6604C2.72 33.8004 1 30.8203 1 27.4603C1 23.9402 2.88001 20.8403 5.76002 19.0003C7.54002 17.8402 9.68001 17.1803 12 17.1803C18.08 17.1803 23 21.7802 23 27.4603Z" fill="#F3EBF9" stroke="#703D92" stroke-width="0.8" stroke-linecap="round" stroke-linejoin="round"/>
<path d="M8.47429 21.9811C8.47429 21.8811 8.55615 21.8 8.65714 21.8H10.4248C10.5258 21.8 10.6076 21.8811 10.6076 21.9811V23.3698C10.6076 23.4698 10.5258 23.5509 10.4248 23.5509H8.65714C8.55615 23.5509 8.47429 23.4698 8.47429 23.3698V21.9811Z" fill="#703D92"/>
<path d="M12.1314 21.9811C12.1314 21.8811 12.2133 21.8 12.3143 21.8H14.0819C14.1829 21.8 14.2648 21.8811 14.2648 21.9811V23.3698C14.2648 23.4698 14.1829 23.5509 14.0819 23.5509H12.3143C12.2133 23.5509 12.1314 23.4698 12.1314 23.3698V21.9811Z" fill="#703D92"/>
<path d="M8.47429 26.5536V33.7661L10.6076 34.6V26.5536H12.1314V33.7661L14.2648 34.6V26.5536H15.6822C16.8518 26.5536 17.8 25.6045 17.8 24.4337V23.249H15.6822V24.4337H7.11776C5.94815 24.4337 5 25.3828 5 26.5536V28.0189H7.11776V26.5536H8.47429Z" fill="#703D92"/>
</svg>
