<svg width="24" height="24" viewBox="0 0 24 24" fill="none" xmlns="http://www.w3.org/2000/svg">
<g clip-path="url(#clip0_585_10023)">
<path d="M13.5695 22.7437V22.2926C13.5695 22.1513 13.5957 22.0125 13.6435 21.8836L10.0801 21.502C10.2806 21.7101 10.3927 21.9927 10.3927 22.2926V22.7437C10.3927 23.3484 10.8653 23.8391 11.4476 23.8391H12.7201C13.3024 23.8391 13.5695 23.3484 13.5695 22.7437Z" fill="#B8B0BB"/>
<path d="M15.3606 18.1531L8.64062 17.2949V17.7355V18.7739L15.3606 19.3984V18.9598V18.1531Z" fill="#E8E7E9"/>
<path d="M15.1206 20.8008L8.64062 20.0996L8.88063 20.567L9.60063 21.5019L13.6806 21.9693L14.6406 21.2682L15.1206 20.8008Z" fill="#E8E7E9"/>
<path d="M15.3606 19.5555L8.64062 18.6973V19.1378V20.1762L15.1206 20.567L15.3606 20.3622V19.5555Z" fill="#D6D0D9"/>
<path d="M17.7587 11.3606C17.7253 12.8118 17.1248 14.1768 16.0728 15.203C15.5017 15.7601 15.1877 16.4895 15.1877 17.2534V17.8833L8.81319 17.3089V17.2362C8.81319 16.478 8.50507 15.762 7.94769 15.2221C6.84668 14.1596 6.24023 12.7409 6.24023 11.2285C6.24023 9.71216 6.84864 8.2916 7.95554 7.22713C9.04282 6.18181 10.4755 5.60938 12.0004 5.60938C12.0279 5.60938 12.0554 5.60938 12.0829 5.60938C13.6216 5.63043 15.0641 6.24308 16.1415 7.33243C17.219 8.42562 17.794 9.85575 17.7587 11.3606Z" fill="#FDD292"/>
<path d="M12.0845 5.56348C12.056 5.56348 12.0274 5.56348 11.9989 5.56348C10.4136 5.56348 8.92346 6.15838 7.79492 7.24255C6.64545 8.34711 6.01172 9.82046 6.01172 11.3939C6.01172 12.9618 6.64165 14.4333 7.78541 15.536C8.24977 15.9845 8.50668 16.5775 8.50668 17.2076V17.9564V18.7496V19.9931C8.50668 20.5806 8.77883 21.1255 9.2546 21.4869L10.0425 22.0855C10.1567 22.1726 10.2214 22.3023 10.2214 22.4413V22.7786C10.2214 23.4458 10.779 23.9888 11.4641 23.9888H12.5355C13.2207 23.9888 13.7783 23.4458 13.7783 22.7786V22.4432C13.7783 22.3023 13.843 22.1726 13.9572 22.0873L14.745 21.4887C14.9468 21.3368 15.1104 21.1496 15.2341 20.942L15.2836 20.8531C15.4206 20.5917 15.493 20.2989 15.493 19.995V18.7514V17.9582V17.2262C15.493 16.5905 15.7556 15.9826 16.2333 15.5175C17.3276 14.4518 17.9499 13.0359 17.986 11.5292C18.0222 9.96873 17.4246 8.48425 16.3037 7.35004C15.1828 6.21954 13.685 5.58386 12.0845 5.56348ZM8.90824 17.671L15.0895 18.227V18.7496V19.1851L8.90824 18.6291V17.9564V17.671ZM8.90824 19.022L15.0895 19.578V19.995C15.0895 20.1803 15.0553 20.3601 14.9886 20.5287L8.90634 19.982V19.022H8.90824ZM13.3767 22.4432V22.7805C13.3767 23.2327 12.9999 23.5996 12.5355 23.5996H11.4641C10.9997 23.5996 10.6229 23.2327 10.6229 22.7805V22.4432C10.6229 22.2189 10.5335 22.0076 10.3736 21.852L13.4357 22.1374C13.3977 22.2337 13.3767 22.3375 13.3767 22.4432ZM14.4976 21.1792L13.7212 21.7704L9.80079 21.4053L9.50391 21.1792C9.23367 20.9735 9.04526 20.6918 8.96152 20.3768L14.7812 20.8994C14.6994 21.0032 14.6042 21.0977 14.4976 21.1792ZM17.5845 11.5199C17.5521 12.9247 16.9698 14.2461 15.9497 15.2395C15.3959 15.7788 15.0914 16.4849 15.0914 17.2243V17.8341L8.91014 17.2781V17.2076C8.91014 16.4737 8.61135 15.7806 8.07087 15.258C7.00323 14.2294 6.41518 12.8561 6.41518 11.392C6.41518 9.92425 7.00514 8.54911 8.07849 7.51869C9.1328 6.5068 10.5221 5.95267 12.0008 5.95267C12.0274 5.95267 12.0541 5.95267 12.0807 5.95267C13.5727 5.97305 14.9715 6.5661 16.0163 7.62062C17.0611 8.67884 17.6187 10.0632 17.5845 11.5199Z" fill="#703D92"/>
<path d="M10.2447 8.5199C10.2447 8.46145 10.2938 8.41406 10.3544 8.41406H11.415C11.4756 8.41406 11.5247 8.46145 11.5247 8.5199V9.33129C11.5247 9.38974 11.4756 9.43713 11.415 9.43713H10.3544C10.2938 9.43713 10.2447 9.38974 10.2447 9.33129V8.5199Z" fill="#703D92"/>
<path d="M12.439 8.5199C12.439 8.46145 12.4881 8.41406 12.5487 8.41406H13.6093C13.6699 8.41406 13.719 8.46145 13.719 8.5199V9.33129C13.719 9.38974 13.6699 9.43713 13.6093 9.43713H12.5487C12.4881 9.43713 12.439 9.38974 12.439 9.33129V8.5199Z" fill="#703D92"/>
<path d="M10.2447 11.1916V15.4058L11.5247 15.893V11.1916H12.439V15.4058L13.719 15.893V11.1916H14.5695C15.2713 11.1916 15.8402 10.637 15.8402 9.95292V9.26074H14.5695V9.95292H9.43081C8.72905 9.95292 8.16016 10.5075 8.16016 11.1916V12.0477H9.43081V11.1916H10.2447Z" fill="#703D92"/>
<path d="M12.0006 3.57499C12.1109 3.57499 12.2004 3.48789 12.2004 3.3804V0.203872C12.2004 0.0963816 12.1109 0.00927734 12.0006 0.00927734C11.8902 0.00927734 11.7988 0.0963816 11.7988 0.203872V3.37854C11.7988 3.48789 11.8883 3.57499 12.0006 3.57499Z" fill="#703D92"/>
<path d="M9.59816 3.71205C9.6229 3.79916 9.70283 3.85661 9.79227 3.85661C9.8094 3.85661 9.82653 3.85476 9.84366 3.8492C9.95023 3.8214 10.0149 3.71391 9.98639 3.61012L9.67428 2.48333C9.64573 2.37954 9.53535 2.31839 9.42878 2.34433C9.32221 2.37213 9.2575 2.47962 9.28605 2.5834L9.59816 3.71205Z" fill="#703D92"/>
<path d="M6.11079 5.67457L5.262 4.848C5.18398 4.77202 5.05647 4.77202 4.97844 4.848C4.90042 4.92399 4.90042 5.04816 4.97844 5.12414L5.82723 5.95071C5.86719 5.98963 5.91857 6.00816 5.96996 6.00816C6.02134 6.00816 6.07273 5.98963 6.11269 5.95071C6.18881 5.87472 6.18881 5.75055 6.11079 5.67457Z" fill="#703D92"/>
<path d="M4.713 7.36305L3.6739 6.77927L1.8888 5.77664C1.79364 5.7229 1.66994 5.7544 1.61475 5.84892C1.55956 5.94159 1.59191 6.06205 1.68897 6.11579L4.51317 7.70406C4.53601 7.71703 4.56265 7.7263 4.58739 7.72815C4.595 7.73 4.60452 7.73 4.61213 7.73C4.68064 7.73 4.74916 7.69479 4.78531 7.63178C4.79293 7.62066 4.79864 7.60769 4.80244 7.59657C4.83289 7.50761 4.79673 7.41124 4.713 7.36305Z" fill="#703D92"/>
<path d="M3.81371 9.34784L2.65472 9.04576C2.54815 9.01796 2.43777 9.07912 2.40922 9.18475C2.38067 9.28854 2.44348 9.39603 2.55195 9.42383L3.71094 9.72591C3.72807 9.72962 3.7452 9.73333 3.76232 9.73333C3.85177 9.73333 3.9317 9.67587 3.95644 9.58877C3.98308 9.48313 3.92028 9.37564 3.81371 9.34784Z" fill="#703D92"/>
<path d="M3.70886 13.6473L2.54987 13.9494C2.4433 13.9772 2.3786 14.0847 2.40714 14.1885C2.43188 14.2756 2.51181 14.333 2.60126 14.333C2.61839 14.333 2.63551 14.3312 2.65264 14.3256L3.81163 14.0235C3.9182 13.9957 3.98291 13.8883 3.95436 13.7845C3.92582 13.6807 3.81544 13.6195 3.70886 13.6473Z" fill="#703D92"/>
<path d="M21.4504 13.9494L20.2914 13.6473C20.1849 13.6195 20.0745 13.6807 20.0459 13.7863C20.0174 13.8901 20.0802 13.9976 20.1887 14.0254L21.3477 14.3275C21.3648 14.3312 21.3819 14.3349 21.399 14.3349C21.4885 14.3349 21.5684 14.2774 21.5932 14.1903C21.6198 14.0847 21.557 13.9772 21.4504 13.9494Z" fill="#703D92"/>
<path d="M21.3456 9.04577L20.1866 9.34785C20.08 9.37565 20.0153 9.48314 20.0439 9.58692C20.0686 9.67403 20.1485 9.73148 20.238 9.73148C20.2551 9.73148 20.2722 9.72963 20.2894 9.72407L21.4483 9.42198C21.5549 9.39418 21.6196 9.28669 21.5911 9.18291C21.5625 9.07913 21.4541 9.01797 21.3456 9.04577Z" fill="#703D92"/>
<path d="M18.7374 4.848L17.8886 5.67457C17.8106 5.75055 17.8106 5.87472 17.8886 5.95071C17.9286 5.98963 17.9799 6.00816 18.0313 6.00816C18.0827 6.00816 18.1341 5.98963 18.1741 5.95071L19.0228 5.12414C19.1009 5.04816 19.1009 4.92399 19.0228 4.848C18.9429 4.77202 18.8154 4.77202 18.7374 4.848Z" fill="#703D92"/>
<path d="M14.1547 3.85092C14.1718 3.85462 14.189 3.85833 14.2061 3.85833C14.2955 3.85833 14.3755 3.80088 14.4002 3.71377L14.7104 2.58512C14.739 2.48134 14.6762 2.37385 14.5677 2.34605C14.4611 2.31825 14.3507 2.37941 14.3222 2.48505L14.012 3.6137C13.9853 3.71563 14.0481 3.82312 14.1547 3.85092Z" fill="#703D92"/>
<path d="M7.56175 4.59026C7.59981 4.65327 7.66642 4.68848 7.73493 4.68848C7.76919 4.68848 7.80344 4.67922 7.8358 4.66254C7.93095 4.60879 7.96521 4.48833 7.91002 4.39567L7.31054 3.38377L6.28096 1.6454C6.22577 1.55273 6.10207 1.51937 6.00692 1.57312C5.91176 1.62686 5.87751 1.74733 5.9327 1.83999L7.56175 4.59026Z" fill="#703D92"/>
<path d="M3.67133 11.6868C3.67133 11.5793 3.58189 11.4922 3.47151 11.4922H2.27255H0.209591C0.0992113 11.4922 0.00976562 11.5793 0.00976562 11.6868C0.00976562 11.7943 0.0992113 11.8814 0.209591 11.8814H2.27065H3.4696C3.58189 11.8814 3.67133 11.7943 3.67133 11.6868Z" fill="#703D92"/>
<path d="M23.7899 11.4902H21.7289H20.5299C20.4195 11.4902 20.3301 11.5773 20.3301 11.6848C20.3301 11.7923 20.4195 11.8794 20.5299 11.8794H21.7289H23.7899C23.9003 11.8794 23.9897 11.7923 23.9897 11.6848C23.9897 11.5773 23.9003 11.4902 23.7899 11.4902Z" fill="#703D92"/>
<path d="M22.3845 5.84657C22.3293 5.7539 22.2056 5.72054 22.1104 5.77429L20.3253 6.77692L19.2862 7.3607C19.1911 7.41444 19.1568 7.53491 19.212 7.62757C19.2501 7.69058 19.3167 7.7258 19.3852 7.7258C19.4194 7.7258 19.4537 7.71653 19.486 7.69985L22.3102 6.11159C22.4073 6.05969 22.4397 5.94109 22.3845 5.84657Z" fill="#703D92"/>
<path d="M16.1651 4.66099C16.1975 4.67952 16.2317 4.68693 16.266 4.68693C16.3269 4.68693 16.3859 4.66099 16.4239 4.61095C16.4297 4.60354 16.4354 4.59612 16.4392 4.58871L17.0386 3.57682L18.0701 1.83844C18.1253 1.74577 18.093 1.62531 17.9959 1.57157C17.9007 1.51782 17.777 1.54933 17.7219 1.64384L16.0909 4.39411C16.0357 4.48863 16.07 4.60724 16.1651 4.66099Z" fill="#703D92"/>
</g>
<defs>
<clipPath id="clip0_585_10023">
<rect width="24" height="24" fill="white"/>
</clipPath>
</defs>
</svg>
