<svg width="38" height="41" viewBox="0 0 38 41" fill="none" xmlns="http://www.w3.org/2000/svg">
<path d="M20.7336 36.8692C24.7552 32.1997 24.2625 25.1259 19.6333 21.0694C15.004 17.0128 7.99117 17.5098 3.96963 22.1793C-0.0519099 26.8488 0.440734 33.9226 5.06998 37.9791C9.69923 42.0356 16.7121 41.5387 20.7336 36.8692Z" fill="#FDD292"/>
<path d="M9.73284 24.3268C9.73284 24.2336 9.80811 24.158 9.90097 24.158H11.5262C11.6191 24.158 11.6944 24.2336 11.6944 24.3268V25.6211C11.6944 25.7143 11.6191 25.7899 11.5262 25.7899H9.90097C9.80811 25.7899 9.73284 25.7143 9.73284 25.6211V24.3268Z" fill="#703D92"/>
<path d="M13.0955 24.3268C13.0955 24.2336 13.1707 24.158 13.2636 24.158H14.8889C14.9817 24.158 15.057 24.2336 15.057 24.3268V25.6211C15.057 25.7143 14.9817 25.7899 14.8889 25.7899H13.2636C13.1707 25.7899 13.0955 25.7143 13.0955 25.6211V24.3268Z" fill="#703D92"/>
<path d="M9.73284 28.5885V35.3106L11.6944 36.0878V28.5885H13.0955V35.3106L15.057 36.0878V28.5885H16.3603C17.4358 28.5885 18.3076 27.7039 18.3076 26.6127V25.5086H16.3603V26.6127H8.48555C7.41013 26.6127 6.53833 27.4973 6.53833 28.5885V29.9541H8.48555V28.5885H9.73284Z" fill="#703D92"/>
<path d="M12.3794 41C11.7587 41 11.138 40.9305 10.5173 40.8609C7.55177 40.3739 4.93108 38.7044 3.13798 36.2C1.34487 33.6957 0.655217 30.7044 1.13798 27.6435C2.17246 21.3826 8.03453 17.2087 14.2414 18.2522C17.2069 18.7392 19.8276 20.4087 21.6207 22.9131C23.4138 25.4174 24.1035 28.4087 23.5518 31.4696C23.069 34.4609 21.4138 37.1044 18.9311 38.9131C17 40.3044 14.7242 41 12.3794 41ZM10.5863 40.3739C13.4138 40.8609 16.3104 40.1653 18.6552 38.4957C21 36.8261 22.5862 34.2522 23.069 31.4C23.5518 28.5479 22.8621 25.6261 21.2069 23.2609C19.5518 20.8957 17 19.2957 14.1725 18.8087C11.3449 18.3218 8.44832 19.0174 6.10349 20.687C3.6897 22.3566 2.17246 24.8609 1.6897 27.7826C1.20694 30.6348 1.8966 33.5566 3.55177 35.9218C5.20694 38.287 7.75867 39.887 10.5863 40.3739Z" fill="#703D92"/>
<path d="M12.3795 39.6087C11.8278 39.6087 11.2761 39.5391 10.7243 39.4695C5.34503 38.5652 1.6209 33.3478 2.58641 27.9217C3.48296 22.4956 8.65538 18.7391 14.0347 19.6434C16.6554 20.0608 18.9312 21.5217 20.5174 23.6782C22.0347 25.8347 22.6554 28.5478 22.2416 31.1913C21.8278 33.8347 20.3795 36.1304 18.2416 37.7304C16.4485 38.913 14.4485 39.6087 12.3795 39.6087ZM10.7933 38.913C15.8968 39.7478 20.7933 36.2695 21.6209 31.1217C22.0347 28.6174 21.483 26.113 19.9657 24.0261C18.5174 21.9391 16.3106 20.6174 13.8278 20.2C11.345 19.7826 8.86227 20.3391 6.79331 21.8695C4.72434 23.3304 3.414 25.5565 3.00021 28.0608C2.24159 33.1391 5.68986 38.0782 10.7933 38.913Z" fill="#703D92"/>
<path d="M11.2759 14.9131C15.069 11.4349 23.2069 5.38268 34.9311 4.40876C35.6207 4.3392 35.6897 3.36528 35.069 3.15659C29.4138 1.55659 17.3448 0.0957191 10.2414 14.1479C9.96554 14.8435 10.7242 15.4001 11.2759 14.9131Z" fill="#D6D0D9"/>
<path d="M10.8621 15.4001C10.6552 15.4001 10.5172 15.3305 10.3103 15.1914C9.9655 14.9131 9.82757 14.4957 10.0345 14.0784C17.2758 -0.391209 29.9655 1.41749 35.1379 2.87836C35.5517 3.01749 35.8276 3.36531 35.7586 3.85227C35.6896 4.26966 35.4138 4.61749 34.931 4.68705C23.2758 5.73053 15.2069 11.7131 11.4138 15.1218C11.2758 15.261 11.0689 15.4001 10.8621 15.4001ZM28.1034 2.3914C22.1724 2.3914 15.2069 4.82618 10.4483 14.2871C10.3793 14.4957 10.4483 14.6349 10.5862 14.774C10.7241 14.8436 10.8621 14.9131 11.0689 14.774C14.931 11.2262 23.1379 5.17401 34.931 4.13053C35.1379 4.13053 35.2758 3.92183 35.2758 3.7827C35.2758 3.64357 35.2069 3.43488 35 3.36531C33.0689 2.87836 30.7241 2.3914 28.1034 2.3914Z" fill="#703D92"/>
<path d="M35.8965 38.287L35.6207 38.4262C34.931 38.774 34.0345 38.4262 33.7586 37.7305L18.4483 3.43485C18.1034 2.7392 18.4483 1.83485 19.1379 1.55659L19.4138 1.41746C20.1034 1.06963 21 1.41746 21.2759 2.11311L36.5172 36.4088C36.931 37.1044 36.5862 38.0088 35.8965 38.287Z" fill="#FDD292"/>
<path d="M35.8965 38.2871L35.6207 38.4263C34.931 38.7741 34.0345 38.4263 33.7586 37.7306L18.4483 3.43497C18.1034 2.73932 18.4483 1.83497 19.1379 1.55671L19.4138 1.41758C20.1034 1.06976 21 1.41758 21.2759 2.11323L36.5172 36.4089C36.931 37.1045 36.5862 38.0089 35.8965 38.2871Z" stroke="#703D92" stroke-width="0.8"/>
<path d="M24.8619 10.0435L21.6205 2.7392C21.6205 2.66963 21.6205 2.80876 21.6205 2.7392L18.655 4.06094C18.655 3.99137 18.655 4.1305 18.655 4.06094L21.9654 11.3653L24.8619 10.0435Z" fill="#B8B0BB"/>
<path d="M21.8275 11.7131L18.5172 4.40875L18.3103 3.92179L18.7931 3.7131L21.6896 2.39136L21.8965 2.87831L25.1379 10.2522L21.8275 11.7131ZM19 4.20005L22.1034 11.0174L24.5172 9.9044L21.4827 3.08701L19 4.20005Z" fill="#703D92"/>
<path d="M24.931 7.60874L20.1035 9.76527C19.6897 9.97396 19.2069 9.76527 19.069 9.34787L17.3448 5.45222C17.1379 5.03483 17.3448 4.54787 17.7586 4.40874L22.5862 2.25222C23 2.04353 23.4828 2.25222 23.6207 2.66961L25.3448 6.56526C25.5517 6.98266 25.3448 7.46961 24.931 7.60874Z" fill="#B8B0BB"/>
<path d="M19.8276 10.1131C19.6897 10.1131 19.5518 10.1131 19.4139 10.0435C19.138 9.97398 18.9311 9.76528 18.7932 9.48702L17.069 5.59137C16.9311 5.31311 16.9311 5.03485 17.069 4.75659C17.138 4.47832 17.3449 4.26963 17.6207 4.1305L22.4483 1.97398C22.7242 1.83485 23.0001 1.83485 23.2759 1.97398C23.5518 2.04354 23.7587 2.25224 23.8966 2.5305L25.6207 6.42615C25.7587 6.70441 25.7587 6.98267 25.6207 7.26093C25.5518 7.53919 25.3449 7.74789 25.069 7.88702L20.2414 10.0435C20.1035 10.1131 19.9656 10.1131 19.8276 10.1131ZM22.9311 2.46093C22.8621 2.46093 22.7932 2.46093 22.7242 2.5305L17.8966 4.68702C17.6207 4.82615 17.4828 5.10441 17.6207 5.38267L19.3449 9.27832C19.4139 9.41745 19.4828 9.48702 19.6207 9.55659C19.7587 9.62615 19.8966 9.62615 20.0345 9.55659L24.8621 7.40006C25.138 7.26093 25.207 6.91311 25.138 6.63485L23.4139 2.73919C23.3449 2.60006 23.2759 2.5305 23.138 2.46093C23.069 2.46093 23.0001 2.46093 22.9311 2.46093Z" fill="#703D92"/>
</svg>
