<svg width="30" height="42" viewBox="0 0 30 42" fill="none" xmlns="http://www.w3.org/2000/svg">
<path d="M22.8631 22.0113C24.4796 10.5946 17.9796 3.29093 14.3697 1C14.5893 1.98514 14.6682 3.39083 14.4041 4.98144C12.9003 14.0369 1.00008 18.4872 1.00008 27.6667C1.00008 36.8974 9.74179 41 15.3982 41C30.655 41 30.1391 23.906 26.711 17.4103C26.1485 19.9344 24.9132 21.6438 23.8592 22.6365C23.3934 23.0753 22.7734 22.6449 22.8631 22.0113Z" fill="url(#paint0_linear_90_4616)" stroke="#703D92" stroke-width="0.769231" stroke-linecap="round" stroke-linejoin="round"/>
<path d="M17.4921 23.3077H12.5081C12.3056 23.3077 12.1109 23.3154 11.924 23.3384C9.82915 23.5149 8.77783 24.7355 8.77783 26.9848V30.0555C8.77783 33.1262 10.0238 33.7327 12.5081 33.7327H12.8196C12.9909 33.7327 13.2167 33.8478 13.318 33.9783L14.2525 35.2066C14.6652 35.7516 15.3349 35.7516 15.7477 35.2066L16.6822 33.9783C16.799 33.8248 16.9859 33.7327 17.1806 33.7327H17.4921C19.7738 33.7327 21.012 32.704 21.1911 30.6313C21.2145 30.447 21.2223 30.2551 21.2223 30.0555V26.9848C21.2223 24.536 19.9763 23.3077 17.4921 23.3077ZM12.2822 29.449C11.8461 29.449 11.5035 29.1036 11.5035 28.6814C11.5035 28.2592 11.8539 27.9137 12.2822 27.9137C12.7105 27.9137 13.061 28.2592 13.061 28.6814C13.061 29.1036 12.7105 29.449 12.2822 29.449ZM15.0001 29.449C14.564 29.449 14.2213 29.1036 14.2213 28.6814C14.2213 28.2592 14.5717 27.9137 15.0001 27.9137C15.4284 27.9137 15.7788 28.2592 15.7788 28.6814C15.7788 29.1036 15.4362 29.449 15.0001 29.449ZM17.7257 29.449C17.2896 29.449 16.9469 29.1036 16.9469 28.6814C16.9469 28.2592 17.2974 27.9137 17.7257 27.9137C18.154 27.9137 18.5044 28.2592 18.5044 28.6814C18.5044 29.1036 18.154 29.449 17.7257 29.449Z" fill="white" stroke="#703D92" stroke-width="0.769231"/>
<defs>
<linearGradient id="paint0_linear_90_4616" x1="14.8462" y1="1" x2="14.8462" y2="41" gradientUnits="userSpaceOnUse">
<stop stop-color="#FFD123"/>
<stop offset="1" stop-color="#FF8A5A"/>
</linearGradient>
</defs>
</svg>
